# xmcd
#
# Track frame offsets: 
#        150
#        11190
#        22724
#        34866
#        50522
#        61263
#        74935
#        89168
#        101728
#        115297
#        127219
#        138373
#        151697
#        162994
#        176849
#        190414
#        203920
#        217166
#        230249
#        242901
#
# Disc length: 3421 seconds
#
# Revision: 0
# Processed by: cddbd v1.5.2PL0 Copyright (c) Steve Scherf et al.
# Submitted via: ExactAudioCopy v1.3
#
DISCID=380d5b14
DTITLE=Various Artist - Simply Memphis Blues
DYEAR=2015
DGENRE=Blues
TTITLE0=Little Junior's Blue Flames - Mystery Train
TTITLE1=B.B. King - Did You Ever Love A Woman?
TTITLE2=Howlin' Wolf - How Many More Years
TTITLE3=Bessie Smith - Gimme A Pigfoot And A Bottle Of Beer
TTITLE4=Junior Wells - Come On In This House
TTITLE5=Memphis Minnie - Me And My Chauffeur Blues
TTITLE6=Rosco Gordon - No More Doggin'
TTITLE7=Joe Hill Louis - Boogie In The Park
TTITLE8=Furry Lewis - Judge Harsh Blues
TTITLE9=Bobby 'Blue' Band - Little Boy Blue
TTITLE10=Jackie Brenston - My Real Gone Rocket
TTITLE11=Gus Cannon's Jug Stompers - Walk Right In
TTITLE12=Willie Nix - Nervous Wreck
TTITLE13=Sleepy John Estes - Runnin' Around
TTITLE14=Frank Stokes - I Got Mine
TTITLE15=James Cotton - Cotton Crop Blues
TTITLE16=Pat Hare - I'm Gonna Murder My Baby
TTITLE17=Robert Wilkins - That's No Way To Get Along
TTITLE18=Rufus Thomas - Tiger Man (King Of The Jungle)
TTITLE19=Big Walter Horton - Now Tell Me Baby
EXTD=
EXTT0=
EXTT1=
EXTT2=
EXTT3=
EXTT4=
EXTT5=
EXTT6=
EXTT7=
EXTT8=
EXTT9=
EXTT10=
EXTT11=
EXTT12=
EXTT13=
EXTT14=
EXTT15=
EXTT16=
EXTT17=
EXTT18=
EXTT19=
PLAYORDER=
